<svg xmlns="http://www.w3.org/2000/svg" width="43" height="14"><g fill="none" fill-rule="evenodd" stroke="#fff"><path d="M0 7h41.864M35.428 1l6 6-6 6"/></g></svg>




























Prev1234Next
           
Size

 
200
Stroke

 
1
 



<svg xmlns="http://www.w3.org/2000/svg" width="111" height="111" fill="currentColor" class="bi bi-arrow-right" viewBox="0 0 16 16" id="IconChangeColor"> <path fill-rule="evenodd" d="M1 8a.5.5 0 0 1 .5-.5h11.793l-3.147-3.146a.5.5 0 0 1 .708-.708l4 4a.5.5 0 0 1 0 .708l-4 4a.5.5 0 0 1-.708-.708L13.293 8.5H1.5A.5.5 0 0 1 1 8z" id="mainIconPathAttribute" stroke-width="0" stroke="#ff0000" fill="#ffffff"></path> </svg>
